#!OML:ASF H:\Terrain\Patient Classification 1\Animal1\Tuesday\Animal1.ASF
:FULLY-SPECIFIED
:DEGREES
1934
root 13.4157 16.4167 -0.677826 -121.938 -83.9107 138.072
lowerback 8.99851 0.514708 0.522641
upperback -0.349925 0.623066 -1.80442
thorax -5.39193 0.258903 -2.26074
lowerneck -7.28494 -2.07447 -10.0759
upperneck -9.23587 -1.81986 12.8953
head -1.26836 -0.914705 5.57638
rclavicle 1.35174e-014 -1.41137e-014
rhumerus -10.5408 1.43462 -72.1711
rradius 118.825
rwrist 11.4602
rhand 8.01131 12.459
rfingers 7.12502
rthumb 33.2378 -14.4907
lclavicle 1.35174e-014 -1.41137e-014
lhumerus -24.2581 -16.1182 85.0521
lradius 109.289
lwrist -49.6442
lhand 19.8464 50.8813
lfingers 7.12502
lthumb 44.392 74.6164
rfemur -35.5719 -0.748247 30.7818
rtibia 46.8538
rfoot -1.06133 -14.5957
rtoes -23.4318
lfemur -53.0225 4.22183 -21.5941
ltibia 67.9457
lfoot 1.67262 -0.438563
ltoes 16.6429
1935
root 13.2869 16.4294 -0.706272 -129.057 -84.3341 145.038
lowerback 9.08426 0.438443 1.54574
upperback -0.215862 0.650367 -1.52529
thorax -5.29061 0.251683 -2.54984
lowerneck -7.21362 -2.15953 -10.0713
upperneck -9.61672 -1.92599 12.9195
head -1.3783 -0.981299 5.58789
rclavicle 4.47266e-015 3.08116e-014
rhumerus -10.5231 1.19585 -72.2212
rradius 118.833
rwrist 11.4634
rhand 7.97109 12.4619
rfingers 7.12502
rthumb 33.1995 -14.496
lclavicle 4.47266e-015 3.08116e-014
lhumerus -24.3897 -15.8317 85.2322
lradius 109.017
lwrist -49.6988
lhand 18.1287 50.2525
lfingers 7.12502
lthumb 42.7881 74.573
rfemur -34.7055 -0.954068 31.691
rtibia 46.6701
rfoot -1.78197 -14.1241
rtoes -22.6441
lfemur -53.1769 3.94656 -20.8853
ltibia 65.4873
lfoot 1.10359 -0.352162
ltoes 21.7751
1936
root 13.1604 16.4504 -0.750514 -131.751 -84.1745 147.867
lowerback 9.01289 0.473023 1.70873
upperback -0.266108 0.715865 -1.49635
thorax -5.29795 0.28 -2.61988
lowerneck -7.17631 -2.32293 -9.9017
upperneck -9.76769 -2.151 13.0469
head -1.40054 -1.10864 5.59733
rclavicle 8.94531e-016 2.14687e-014
rhumerus -10.5664 0.559984 -72.1568
rradius 118.571
rwrist 11.3836
rhand 8.05411 12.647
rfingers 7.12502
rthumb 33.2785 -14.2941
lclavicle 8.94531e-016 2.14687e-014
lhumerus -24.7145 -16.05 85.3022
lradius 108.862
lwrist -49.9015
lhand 16.4451 50.3334
lfingers 7.12502
lthumb 41.2101 75.1826
rfemur -34.2388 -0.810506 31.7912
rtibia 46.4083
rfoot -1.38508 -13.3217
rtoes -23.2353
lfemur -53.3793 3.56866 -20.9108
ltibia 62.5586
lfoot 0.935499 -1.54379
ltoes 11.5262
1937
root 13.0223 16.492 -0.800125 -129.529 -83.3017 145.787
lowerback 8.81562 0.595583 0.822886
upperback -0.328679 0.771648 -1.68755
thorax -5.25767 0.327982 -2.32425
lowerneck -7.14508 -2.45043 -9.64739
upperneck -9.8391 -2.33544 13.1775
head -1.40425 -1.21689 5.59264
rclavicle 1.55052e-014 2.52457e-014
rhumerus -10.7702 -0.102226 -72.1778
rradius 118.355
rwrist 11.4752
rhand 8.21721 12.9717
rfingers 7.12502
rthumb 33.4335 -13.936
lclavicle 1.55052e-014 2.52457e-014
lhumerus -25.0789 -16.3564 85.1537
lradius 108.828
lwrist -49.992
lhand 16.446 50.305
lfingers 7.12502
lthumb 41.211 75.1539
rfemur -33.7237 -0.853508 31.0922
rtibia 46.0845
rfoot 0.96315 -12.016
rtoes -31.7493
lfemur -53.189 2.97893 -21.6748
ltibia 59.2128
lfoot 0.894516 -2.85869
ltoes 2.63677
1938
root 12.8761 16.5388 -0.841277 -127.896 -82.6144 144.25
lowerback 8.56173 0.521507 0.174661
upperback -0.349975 0.599046 -1.79626
thorax -5.15002 0.258639 -2.04563
lowerneck -7.05968 -2.44933 -9.58273
upperneck -10.0064 -2.32995 13.4134
head -1.46162 -1.23085 5.65989
rclavicle -2.50469e-014 6.75868e-015
rhumerus -11.1417 -0.226733 -72.5392
rradius 118.288
rwrist 11.8663
rhand 8.20605 13.5887
rfingers 7.12502
rthumb 33.4229 -13.3213
lclavicle -2.50469e-014 6.75868e-015
lhumerus -25.3387 -16.0735 85.1098
lradius 108.554
lwrist -50.1684
lhand 16.9952 49.7067
lfingers 7.12502
lthumb 41.7263 74.3878
rfemur -33.058 -1.21761 30.5876
rtibia 45.6541
rfoot 1.55716 -11.1578
rtoes -35.9208
lfemur -52.7476 2.06018 -22.08
ltibia 55.6363
lfoot 1.15316 -3.51416
ltoes 2.64631
1939
root 12.7315 16.5762 -0.884236 -129.34 -82.3812 145.897
lowerback 8.26922 0.430807 0.179385
upperback -0.431591 0.48529 -1.73643
thorax -5.07484 0.204225 -1.96827
lowerneck -6.87641 -2.47937 -9.53165
upperneck -10.1362 -2.37705 13.4975
head -1.52188 -1.268 5.68094
rclavicle 2.18663e-015 -7.35503e-015
rhumerus -11.6666 -0.226802 -72.88
rradius 118.233
rwrist 12.1645
rhand 8.24188 13.7598
rfingers 7.12502
rthumb 33.457 -13.1429
lclavicle 2.18663e-015 -7.35503e-015
lhumerus -25.561 -15.938 85.2361
lradius 108.074
lwrist -50.259
lhand 16.7565 49.5029
lfingers 7.12502
lthumb 41.5024 74.2575
rfemur -32.4599 -1.27469 30.6213
rtibia 45.082
rfoot 1.23803 -10.6544
rtoes -37.3529
lfemur -52.3524 1.23799 -21.7798
ltibia 51.9824
lfoot 1.46638 -3.89711
ltoes 2.62761
1940
root 12.582 16.6163 -0.931325 -133.525 -82.1699 150.05
lowerback 8.17227 0.493156 0.348565
upperback -0.458252 0.594797 -1.59944
thorax -5.04371 0.256841 -1.93338
lowerneck -6.69766 -2.57783 -9.30915
upperneck -10.107 -2.53909 13.4049
head -1.529 -1.35908 5.61173
rclavicle 2.68359e-015 1.96797e-014
rhumerus -12.1539 -0.506208 -73.0632
rradius 118.073
rwrist 12.1972
rhand 8.21755 13.6385
rfingers 7.12502
rthumb 33.4339 -13.2691
lclavicle 2.68359e-015 1.96797e-014
lhumerus -25.7954 -16.2156 85.4035
lradius 107.641
lwrist -50.0025
lhand 16.0969 49.6508
lfingers 7.12502
lthumb 40.8832 74.6042
rfemur -31.4769 -1.29194 31.0116
rtibia 44.4146
rfoot 1.97904 -9.56546
rtoes -39.2417
lfemur -51.5969 0.662955 -21.1214
ltibia 48.3968
lfoot 2.05327 -3.59997
ltoes 5.14438
1941
root 12.4316 16.6711 -0.981146 -137.63 -81.7791 153.962
lowerback 8.12486 0.55185 0.381864
upperback -0.375095 0.682395 -1.5037
thorax -4.92756 0.301894 -1.86134
lowerneck -6.6655 -2.67702 -9.03467
upperneck -10.0614 -2.69883 13.3353
head -1.50849 -1.44827 5.53926
rclavicle 1.26228e-014 1.03368e-014
rhumerus -12.4555 -0.708146 -73.2553
rradius 117.752
rwrist 12.1771
rhand 7.88335 14.0109
rfingers 7.12502
rthumb 33.1161 -12.9647
lclavicle 1.26228e-014 1.03368e-014
lhumerus -25.86 -16.3087 85.5828
lradius 107.192
lwrist -49.8017
lhand 15.9558 49.5529
lfingers 7.12502
lthumb 40.7506 74.5481
rfemur -30.3419 -1.18263 31.2291
rtibia 43.7784
rfoot 2.99502 -7.7578
rtoes -39.8393
lfemur -50.5635 0.0296815 -20.4304
ltibia 44.9178
lfoot 3.02158 -2.74484
ltoes 7.86064
1942
root 12.2833 16.7344 -1.03016 -139.971 -81.3317 156.357
lowerback 7.77595 0.520739 0.336978
upperback -0.312583 0.640077 -1.48262
thorax -4.66772 0.284588 -1.80303
lowerneck -6.68041 -2.78478 -9.19428
upperneck -10.0296 -2.82499 13.7104
head -1.46862 -1.51507 5.68081
rclavicle 7.85199e-015 2.70347e-014
rhumerus -12.717 -0.784328 -73.5305
rradius 117.354
rwrist 12.3448
rhand 7.7988 14.8819
rfingers 7.12502
rthumb 33.0357 -12.1108
lclavicle 7.85199e-015 2.70347e-014
lhumerus -25.8935 -16.3543 85.6644
lradius 106.788
lwrist -49.6156
lhand 16.6131 49.5707
lfingers 7.12502
lthumb 41.3678 74.3691
rfemur -29.6145 -0.748616 31.1332
rtibia 43.2833
rfoot 3.5535 -6.34713
rtoes -37.8571
lfemur -49.7934 -0.797203 -19.8458
ltibia 41.6628
lfoot 4.37547 -2.14817
ltoes 6.92811
1943
root 12.1291 16.797 -1.07445 -141.586 -80.831 158.06
lowerback 7.36305 0.483517 0.247631
upperback -0.32642 0.585797 -1.47254
thorax -4.45222 0.261699 -1.73042
lowerneck -6.56041 -2.87137 -9.56292
upperneck -9.84238 -2.91583 14.2971
head -1.39866 -1.55933 5.92428
rclavicle 2.1916e-014 -1.05356e-014
rhumerus -13.2578 -0.789534 -73.8536
rradius 117.114
rwrist 12.4927
rhand 7.59293 15.1908
rfingers 7.12502
rthumb 32.8399 -11.843
lclavicle 2.1916e-014 -1.05356e-014
lhumerus -26.2944 -16.6436 85.7225
lradius 106.567
lwrist -49.4475
lhand 17.4939 49.7066
lfingers 7.12502
lthumb 42.1937 74.2314
rfemur -28.9824 -0.626752 31.1025
rtibia 42.9169
rfoot 3.64642 -5.65955
rtoes -36.2126
lfemur -49.1192 -1.75882 -19.2631
ltibia 38.7562
lfoot 5.86231 -1.60743
ltoes 3.83822
1944
root 11.9716 16.8275 -1.12316 -144.96 -80.1887 161.395
lowerback 7.07712 0.546133 0.103184
upperback -0.340232 0.666271 -1.33424
thorax -4.30609 0.30796 -1.51056
lowerneck -6.4092 -2.90993 -9.52851
upperneck -9.61022 -2.98942 14.3663
head -1.34507 -1.59629 5.93563
rclavicle -1.59028e-014 2.5842e-015
rhumerus -13.9131 -0.617484 -74.0222
rradius 117.065
rwrist 12.3246
rhand 7.10022 14.337
rfingers 7.12502
rthumb 32.3711 -12.7938
lclavicle -1.59028e-014 2.5842e-015
lhumerus -26.6794 -16.8094 85.916
lradius 106.263
lwrist -49.3805
lhand 17.4764 49.5289
lfingers 7.12502
lthumb 42.1774 74.0593
rfemur -28.3433 -0.553085 31.4418
rtibia 42.7313
rfoot 3.84466 -4.89329
rtoes -36.0861
lfemur -48.1338 -2.67069 -18.1741
ltibia 36.3591
lfoot 6.91888 -0.14502
ltoes 6.26725
1945
root 11.8159 16.8659 -1.18273 -148.579 -79.349 165.047
lowerback 6.6871 0.614169 -0.153123
upperback -0.31494 0.748868 -1.14307
thorax -4.06368 0.358412 -1.17118
lowerneck -6.2308 -2.86218 -9.61911
upperneck -9.62859 -2.9291 14.4267
head -1.38353 -1.57124 5.97429
rclavicle -3.70733e-014 -4.27387e-014
rhumerus -14.2999 -0.398618 -74.1151
rradius 116.95
rwrist 12.1559
rhand 6.84194 13.8582
rfingers 7.12502
rthumb 32.1252 -13.3226
lclavicle -3.70733e-014 -4.27387e-014
lhumerus -26.7475 -16.5424 86.1046
lradius 105.9
lwrist -49.3545
lhand 17.1007 49.587
lfingers 7.12502
lthumb 41.8252 74.2353
rfemur -27.9084 -0.240313 31.8185
rtibia 42.7027
rfoot 4.61498 -3.79684
rtoes -35.8705
lfemur -47.3799 -3.59622 -16.8147
ltibia 34.528
lfoot 8.20172 1.91689
ltoes 12.1841
1946
root 11.6632 16.9156 -1.22873 -150.998 -78.492 167.464
lowerback 6.33046 0.610805 -0.0884758
upperback -0.236885 0.752627 -1.15213
thorax -3.78103 0.360061 -1.21129
lowerneck -6.07894 -2.80349 -9.97721
upperneck -9.71474 -2.82225 14.8675
head -1.42733 -1.52512 6.1816
rclavicle -1.49089e-016 -4.47266e-015
rhumerus -14.5559 -0.296805 -74.3706
rradius 116.779
rwrist 12.2283
rhand 6.81659 13.9045
rfingers 7.12502
rthumb 32.1011 -13.2811
lclavicle -1.49089e-016 -4.47266e-015
lhumerus -26.7608 -16.4294 86.0172
lradius 105.675
lwrist -49.3734
lhand 16.863 49.5834
lfingers 7.12502
lthumb 41.6023 74.3053
rfemur -27.5645 -0.259849 32.0047
rtibia 42.9952
rfoot 5.58252 -1.86743
rtoes -37.1098
lfemur -46.6703 -4.97575 -15.4403
ltibia 33.2312
lfoot 9.28318 4.07046
ltoes 17.5764
1947
root 11.5116 16.9692 -1.25629 -152.994 -77.627 169.307
lowerback 6.16958 0.568614 0.327553
upperback -0.110865 0.719287 -1.36227
thorax -3.5531 0.334509 -1.65557
lowerneck -6.24043 -2.79778 -9.94861
upperneck -9.4803 -2.81522 15.2461
head -1.32235 -1.52325 6.29033
rclavicle -9.16894e-015 -9.39258e-015
rhumerus -14.8228 -0.202175 -74.857
rradius 116.682
rwrist 12.4309
rhand 7.12124 14.0598
rfingers 7.12502
rthumb 32.3911 -13.067
lclavicle -9.16894e-015 -9.39258e-015
lhumerus -26.7551 -16.5516 85.5206
lradius 105.557
lwrist -49.2351
lhand 16.391 48.2833
lfingers 7.12502
lthumb 41.1593 73.1488
rfemur -27.2419 -0.477091 31.9308
rtibia 43.6857
rfoot 6.18157 0.480069
rtoes -37.6748
lfemur -45.833 -6.27613 -14.3643
ltibia 32.3835
lfoot 10.1883 5.33605
ltoes 16.9925
1948
root 11.3564 17.025 -1.28767 -154.896 -76.6016 171.074
lowerback 6.0311 0.576685 0.580906
upperback -0.0135523 0.74011 -1.56022
thorax -3.36835 0.339672 -2.00148
lowerneck -6.53422 -2.84714 -9.68213
upperneck -9.10596 -2.90639 15.5317
head -1.14921 -1.56743 6.32177
rclavicle -4.18069e-015 4.29126e-014
rhumerus -15.1486 -0.266788 -75.4593
rradius 116.687
rwrist 12.9238
rhand 7.27043 14.3461
rfingers 7.12502
rthumb 32.5331 -12.7515
lclavicle -4.18069e-015 4.29126e-014
lhumerus -26.7576 -16.6521 84.9572
lradius 105.573
lwrist -49.1896
lhand 16.3205 47.5295
lfingers 7.12502
lthumb 41.0931 72.4162
rfemur -27.3693 -0.607734 31.7517
rtibia 44.9425
rfoot 7.2874 1.1789
rtoes -30.9738
lfemur -44.9672 -7.12127 -13.5965
ltibia 31.895
lfoot 11.3486 6.63022
ltoes 18.0195
